<svg  viewBox="0 0 31 31" fill="none" xmlns="http://www.w3.org/2000/svg">
              <path fill-rule="evenodd" clip-rule="evenodd" d="M6.45833 14.2083C6.45833 9.93421 9.93421 6.45833 14.2083 6.45833C18.4825 6.45833 21.9583 9.93421 21.9583 14.2083C21.9583 18.4825 18.4825 21.9583 14.2083 21.9583C9.93421 21.9583 6.45833 18.4825 6.45833 14.2083ZM26.7465 24.9201L22.3613 20.5336C23.7215 18.7847 24.5417 16.5927 24.5417 14.2083C24.5417 8.51079 19.9059 3.875 14.2083 3.875C8.51079 3.875 3.875 8.51079 3.875 14.2083C3.875 19.9059 8.51079 24.5417 14.2083 24.5417C16.5927 24.5417 18.7847 23.7215 20.5336 22.3613L24.9201 26.7465C25.172 26.9984 25.5027 27.125 25.8333 27.125C26.164 27.125 26.4947 26.9984 26.7465 26.7465C27.2516 26.2415 27.2516 25.4252 26.7465 24.9201Z" fill="#231F20" />
              <mask id="mask0_203_380" style="mask-type:luminance" maskUnits="userSpaceOnUse" x="3" y="3" width="25" height="25">
                <path fill-rule="evenodd" clip-rule="evenodd" d="M6.45833 14.2083C6.45833 9.93421 9.93421 6.45833 14.2083 6.45833C18.4825 6.45833 21.9583 9.93421 21.9583 14.2083C21.9583 18.4825 18.4825 21.9583 14.2083 21.9583C9.93421 21.9583 6.45833 18.4825 6.45833 14.2083ZM26.7465 24.9201L22.3613 20.5336C23.7215 18.7847 24.5417 16.5927 24.5417 14.2083C24.5417 8.51079 19.9059 3.875 14.2083 3.875C8.51079 3.875 3.875 8.51079 3.875 14.2083C3.875 19.9059 8.51079 24.5417 14.2083 24.5417C16.5927 24.5417 18.7847 23.7215 20.5336 22.3613L24.9201 26.7465C25.172 26.9984 25.5027 27.125 25.8333 27.125C26.164 27.125 26.4947 26.9984 26.7465 26.7465C27.2516 26.2415 27.2516 25.4252 26.7465 24.9201Z" fill="white" />
              </mask>
              <g mask="url(#mask0_203_380)">
                <rect width="31" height="31" fill="#0D1C2E" />
              </g>
</svg>